<svg xmlns="http://www.w3.org/2000/svg" viewBox="0 0 631.97 265"><defs><style>.cls-1{fill:#d61321;}</style></defs><g id="Layer_2" data-name="Layer 2"><g id="Layer_2-2" data-name="Layer 2"><path class="cls-1" d="M174.49,0C174,26.39,174,52.79,174,94.58c0,40.07-.25,67.2.49,94.57H101.66c0-5.13.25-10.26.25-15.64,0-3.66,0-7.33.24-11l-1.46-.24c-5.63,15.15-17.85,29.08-47.17,29.08C18.33,191.35,0,170.58,0,110.46c0-61.1,24-80.4,55.72-80.4,20.28,0,36.41,6.35,45.7,22.48l.73-.24c-.49-8.31-.49-15.15-.49-24.93,0-10.26,0-18.82-.24-27.37ZM102.88,78.2a44.58,44.58,0,0,0-13.44-2C77,76.25,71.11,82.85,71.11,109c0,23.71,5.63,30.8,15.16,30.8,9.77,0,16.61-7.34,16.61-25.91Z"/><path class="cls-1" d="M278.44,93.33c0-10.51-3.67-15.15-13.69-15.15S248.62,83.07,250.33,98c-6.6-.74-17.1-.74-27.61-.74-13,0-25.91.25-33.24,1C188,49.59,209,30.28,268.42,30.28c55.23,0,78.2,18.33,78.2,57.19,0,23-.49,37.88-.49,57.92,0,16.61,1,37.88,3.42,44.72H294.08c-12.47,0-14.67-1-14.67-15.15,0-2.94.25-6.85.49-10.76h-1.22c-5.86,19.07-22.48,27.86-47.41,27.86-30.3,0-46.19-9.77-46.19-42,0-33,21-45.46,69.65-45.46,9.29,0,17.11.25,23.71,1.23Zm-.25,32c-3.91-.25-7.82-.49-11.73-.49-12.46,0-17.35,3.17-17.35,12.46,0,10.51,3.67,13.93,13.44,13.93C272.82,151.25,278.19,144.16,278.19,125.35Z"/><path class="cls-1" d="M552.84,191.88V265q-46.89-.48-94.67-.48-48.75,0-96.58.53,1.14-28.18,2.26-56.4v-.09c.65-26.82.65-58.76.65-90.17,0-32.25-.25-60.36-1-87.73h73.06c-.49,27.12-.49,55-.49,95.07,0,26.63,0,47.83.15,67.37q14.61-.08,29.22-.19Q509.15,192.52,552.84,191.88Z"/><path class="cls-1" d="M543.26,177c-61.83,0-87.49-25.17-87.49-85.29,0-61.09,29.09-77.95,87.49-77.95,58.17,0,88.71,16.86,88.71,78C632,151.85,605.09,177,543.26,177Zm.25-115.34C532,61.68,526.4,67.54,526.4,92c0,24.93,5.62,32,17.11,32s17.1-7.33,17.1-32C560.61,67.78,555,61.68,543.51,61.68Z"/></g></g></svg>