<svg xmlns="http://www.w3.org/2000/svg" viewBox="0 0 1230.9 927.14"><defs><style>.cls-1{fill:#2c1a0e;}.cls-2,.cls-3{fill:none;stroke:#2c1a0e;stroke-miterlimit:10;}.cls-2{stroke-linecap:round;stroke-width:60.91px;}.cls-3{stroke-width:60.91px;}</style></defs><g id="Layer_2" data-name="Layer 2"><g id="Layer_2-2" data-name="Layer 2"><path class="cls-1" d="M328.94,173.85h51.69v17.23H347.89V223h26v17.23h-26v37.05h32.74v17.23H328.94Z"/><path class="cls-1" d="M386.49,173.85h19.13L418,267.42h.34l12.41-93.57h17.4L429.92,294.47H404.76Z"/><path class="cls-1" d="M457.31,173.85H509v17.23H476.27V223h26v17.23h-26v37.05H509v17.23h-51.7Z"/><path class="cls-1" d="M519.86,173.85H548q14.64,0,21.37,6.81T576,201.59V209q0,18.78-12.41,23.78v.35a14.78,14.78,0,0,1,9.73,8.44q2.85,6.38,2.85,17.06v21.19a81.11,81.11,0,0,0,.34,8.36,20.93,20.93,0,0,0,1.72,6.29H559A27.57,27.57,0,0,1,557.6,289a82.69,82.69,0,0,1-.35-9.31v-22q0-8.28-2.67-11.55t-9.22-3.27h-6.54v51.69h-19Zm25.85,51.69q5.68,0,8.53-2.92t2.84-9.83v-9.3c0-4.37-.77-7.52-2.33-9.48s-4-2.93-7.32-2.93h-8.61v34.46Z"/><path class="cls-1" d="M604,243.12,581,173.85h20.16l12.93,44.29h.34l12.93-44.29h18.44l-22.92,69.27v51.35H604Z"/><path class="cls-1" d="M670,191.08H650.13V173.85h58.59v17.23H688.9V294.47H670Z"/><path class="cls-1" d="M717.85,173.85h19V223h20.33V173.85h19V294.47h-19V240.19H736.81v54.28h-19Z"/><path class="cls-1" d="M790.22,173.85h19V294.47h-19Z"/><path class="cls-1" d="M823.31,173.85h23.77l18.44,72.2h.35v-72.2h16.88V294.47H863.28l-22.74-88.05h-.35v88.05H823.31Z"/><path class="cls-1" d="M902.74,288.35q-7.23-7.83-7.24-22.48V202.45q0-14.64,7.24-22.48t21-7.84q13.79,0,21,7.84T952,202.45v10.34H934.1V201.25q0-11.9-9.82-11.89t-9.82,11.89v66q0,11.73,9.82,11.72t9.82-11.72v-23.6h-9.47V226.41H952v39.46q0,14.64-7.23,22.48t-21,7.84Q910,296.19,902.74,288.35Z"/><path class="cls-1" d="M321.22,621.81h45.66V637H338v28.16h23v15.22H338v32.72h28.92v15.22H321.22Z"/><path class="cls-1" d="M376.47,621.81h21l16.29,63.78h.3V621.81H429V728.35h-17.2l-20.09-77.77h-.31v77.77H376.47Z"/><path class="cls-1" d="M454.54,637H437V621.81h51.75V637h-17.5v91.32H454.54Z"/><path class="cls-1" d="M496.86,621.81h24.8q12.95,0,18.88,6t5.93,18.49v6.54q0,16.59-11,21v.3a13.08,13.08,0,0,1,8.6,7.46q2.52,5.63,2.51,15.07v18.72a69.45,69.45,0,0,0,.31,7.38,18.38,18.38,0,0,0,1.52,5.55H531.4a24.54,24.54,0,0,1-1.21-4.87,71,71,0,0,1-.31-8.21V695.78q0-7.31-2.36-10.19t-8.14-2.9H513.6v45.66H496.86Zm22.82,45.66q5,0,7.54-2.58t2.51-8.68V648c0-3.85-.68-6.64-2.06-8.37s-3.52-2.59-6.46-2.59H513.6v30.44Z"/><path class="cls-1" d="M558.19,621.81h45.66V637H574.93v28.16h23v15.22h-23v32.72h28.92v15.22H558.19Z"/><path class="cls-1" d="M613.44,621.81h24.65q12.48,0,18.73,6.7t6.24,19.63v10.51q0,12.93-6.24,19.63T638.09,685h-7.91v43.37H613.44Zm24.65,48q4.11,0,6.17-2.29t2-7.76V647.08q0-5.48-2-7.76c-1.37-1.52-3.43-2.29-6.17-2.29h-7.91v32.73Z"/><path class="cls-1" d="M672.19,621.81H697q12.93,0,18.87,6t5.93,18.49v6.54q0,16.59-11,21v.3a13.08,13.08,0,0,1,8.6,7.46Q722,687.26,722,696.7v18.72a72.68,72.68,0,0,0,.3,7.38,18.38,18.38,0,0,0,1.52,5.55h-17a23.92,23.92,0,0,1-1.22-4.87,71,71,0,0,1-.31-8.21V695.78q0-7.31-2.36-10.19t-8.14-2.9h-5.78v45.66H672.19ZM695,667.47c3.34,0,5.86-.86,7.53-2.58s2.51-4.62,2.51-8.68V648q0-5.78-2-8.37c-1.37-1.72-3.53-2.59-6.47-2.59h-7.61v30.44Z"/><path class="cls-1" d="M733.52,621.81h45.66V637H750.26v28.16h23v15.22h-23v32.72h28.92v15.22H733.52Z"/><path class="cls-1" d="M788.77,621.81h21l16.29,63.78h.3V621.81h14.92V728.35h-17.2L804,650.58h-.31v77.77H788.77Z"/><path class="cls-1" d="M853.76,621.81h45.66V637H870.5v28.16h23v15.22h-23v32.72h28.92v15.22H853.76Z"/><path class="cls-1" d="M914.79,723q-6.4-6.91-6.39-19.86V621.81h16.74v82.5q0,5.48,2.2,7.91a9.4,9.4,0,0,0,12.64,0q2.21-2.43,2.2-7.91v-82.5h16.14v81.28q0,12.93-6.4,19.86t-18.57,6.93Q921.19,729.88,914.79,723Z"/><path class="cls-1" d="M970.19,621.81H995q12.93,0,18.87,6t5.93,18.49v6.54q0,16.59-11,21v.3a13.08,13.08,0,0,1,8.6,7.46q2.52,5.63,2.52,15.07v18.72a72.68,72.68,0,0,0,.3,7.38,18.38,18.38,0,0,0,1.52,5.55h-17a23.92,23.92,0,0,1-1.22-4.87,71,71,0,0,1-.31-8.21V695.78q0-7.31-2.36-10.19t-8.14-2.9h-5.78v45.66H970.19ZM993,667.47q5,0,7.53-2.58c1.68-1.73,2.51-4.62,2.51-8.68V648q0-5.78-2-8.37c-1.37-1.72-3.53-2.59-6.47-2.59h-7.61v30.44Z"/><path class="cls-1" d="M1034.87,723q-6.24-6.91-6.24-19.86V697h15.83v7.31q0,10.35,8.68,10.35,4.26,0,6.46-2.52t2.21-8.14a22.55,22.55,0,0,0-3-11.79q-3-5.1-11.27-12.26-10.35-9.12-14.46-16.51a33.76,33.76,0,0,1-4.11-16.67q0-12.63,6.4-19.55t18.57-6.93q12,0,18.18,6.93t6.17,19.86v4.41h-15.83V646q0-5.47-2.13-8a7.74,7.74,0,0,0-6.24-2.51q-8.37,0-8.37,10.2a20.12,20.12,0,0,0,3.12,10.81q3.12,5,11.34,12.17,10.5,9.13,14.45,16.59a36.8,36.8,0,0,1,4,17.5q0,13.1-6.47,20.1t-18.79,7Q1041.11,729.88,1034.87,723Z"/><path class="cls-1" d="M1088.14,621.81h16.74v43.38h18V621.81h16.74V728.35h-16.74V680.41h-18v47.94h-16.74Z"/><path class="cls-1" d="M1152.06,621.81h16.75V728.35h-16.75Z"/><path class="cls-1" d="M1181.28,621.81h24.66q12.48,0,18.72,6.7t6.24,19.63v10.51q0,12.93-6.24,19.63t-18.72,6.7H1198v43.37h-16.75Zm24.66,48q4.11,0,6.16-2.29t2.06-7.76V647.08q0-5.48-2.06-7.76c-1.37-1.52-3.42-2.29-6.16-2.29H1198v32.73Z"/><polyline class="cls-2" points="599.51 30.45 256.78 30.45 256.78 896.68 599.51 896.68"/><path class="cls-3" d="M373.18,30.45H138.63A108.19,108.19,0,0,0,30.45,138.63V783.51A113.17,113.17,0,0,0,143.62,896.68H373.18"/><line class="cls-2" x1="30.45" y1="463.57" x2="599.51" y2="463.57"/></g></g></svg>