<svg xmlns="http://www.w3.org/2000/svg" viewBox="0 0 380.5 101.37"><defs><style>.cls-1{fill:#1e3a8a;}.cls-2{fill:#f9fafb;}</style></defs><g id="Layer_2" data-name="Layer 2"><g id="Layer_2-2" data-name="Layer 2"><path class="cls-1" d="M137.8,64.16a6.26,6.26,0,0,0-.1,1.27c0,4.28,2.53,5.74,10.54,5.74q8.65,0,10.64-1.1c1.21-.63,1.52-1.73,1.52-4.91,0-6.1-.1-6-12.87-7-14-1-18.14-1.73-21.59-3.91-4.55-2.82-6.78-8.19-6.78-16.11s1.82-12.74,6-15.92C129.59,19,134.56,18,147.93,18c15,0,20.17.82,24.73,4.46,3.75,2.91,5.07,6.55,5.07,14.65V38H159.28V36.86c0-2.1-.6-3.37-1.82-3.83-1.52-.63-6.08-1-11.25-1-5.77,0-7.09,1.46-7.09,6.28,0,5.1.71,5.28,14.29,6.28,15.5,1.18,19.15,2.19,22.69,5.55,3.15,3.19,4.36,7.56,4.36,14.56,0,8.74-2.43,14-8.1,17.2-4.26,2.37-10.64,3.37-23.51,3.37S129.59,84.09,124.73,81c-4.36-2.82-5.88-6.55-5.88-13.56V64.16Z"/><path class="cls-1" d="M185.33,46c0-7.74.4-11,1.92-14.56,2.64-6.37,7.5-10.38,14.6-12.11,3.54-1,8.1-1.27,15.4-1.27,10.54,0,18.44,1.18,22.8,3.37a18.46,18.46,0,0,1,10,11.28c1.11,3.28,1.42,7,1.42,18.75,0,14.92-.51,18.56-3.45,23.38a17.57,17.57,0,0,1-9.62,7.74q-7.76,2.73-19.46,2.73c-15.1,0-23.91-2.46-28.88-8.19-3.55-3.91-4.76-8.65-4.76-16.65Zm21.18-7.37c-.71,2.54-.92,6.37-.92,12.55,0,10.92.51,13.84,2.13,16,1.52,1.82,3.95,2.46,9.93,2.46,7.3,0,10.24-.64,11.76-2.46,1.31-1.73,1.82-5.55,1.82-17.93,0-9.28-.4-11.55-2-13.28s-4.87-2.55-12.16-2.55S207.42,34.58,206.51,38.59Zm15.09-25H209.44L219.27,0h18.55Z"/><path class="cls-1" d="M258.9,18.75h20.26V43.5H281l17.33-24.75h23.2l-23.91,32,25.94,33.13v.63H299.94L280.78,58.15h-1.62V84.54H258.9Z"/><path class="cls-1" d="M324.86,18.75H380.5V33.31H345.13V44.68h33.44V57.24H345.13V69.8H380.5V84.54H324.86Zm36.79-5.19H349.49L333.27,0h18.55Z"/><rect class="cls-1" y="3.23" width="106.44" height="98.14" rx="17.13"/><path class="cls-2" d="M72.8,45.33l0,.06a8.33,8.33,0,0,1,2,7.63L68.65,78.41A8.32,8.32,0,0,1,62,84.66L35.49,89.23a8.32,8.32,0,0,1-7.56-2.57h0a8.35,8.35,0,0,1,4.78-13.89L48,70.24A8.37,8.37,0,0,0,54.78,64L58.56,49A8.35,8.35,0,0,1,72.8,45.33Z"/><path class="cls-2" d="M78.36,17.88l0-.06a8.36,8.36,0,0,0-7.48-2.46L45.09,19.87a8.35,8.35,0,0,0-6.67,6.27L32.14,52.26A8.33,8.33,0,0,0,34.21,60h0a8.35,8.35,0,0,0,14.17-3.87L51.91,41a8.35,8.35,0,0,1,6.63-6.32l15.28-2.79A8.35,8.35,0,0,0,78.36,17.88Z"/></g></g></svg>