<svg xmlns="http://www.w3.org/2000/svg" viewBox="0 0 393.89 119.71"><defs><style>.cls-1{font-size:91px;font-family:EurostileLTProUnicode-Bold, Eurostile LT Pro Unicode;font-weight:700;letter-spacing:-0.05em;}.cls-1,.cls-2{fill:#1e3a8a;}.cls-3{fill:#f9fafb;}</style></defs><g id="Layer_2" data-name="Layer 2"><g id="Layer_2-2" data-name="Layer 2"><text class="cls-1" transform="translate(127.59 98.14) scale(1.11 1)">SÓKÈ</text><rect class="cls-2" width="121.28" height="111.83" rx="19.52"/><path class="cls-3" d="M83,48,83,48a9.54,9.54,0,0,1,2.24,8.7l-7,28.92a9.5,9.5,0,0,1-7.63,7.13L40.44,98a9.51,9.51,0,0,1-8.62-2.93h0a9.52,9.52,0,0,1,5.45-15.83l17.47-2.89a9.49,9.49,0,0,0,7.68-7.07l4.31-17.17A9.51,9.51,0,0,1,83,48Z"/><path class="cls-3" d="M89.29,16.7l-.06-.07a9.51,9.51,0,0,0-8.53-2.8L51.38,19a9.52,9.52,0,0,0-7.61,7.14L36.62,55.87A9.49,9.49,0,0,0,39,64.66h0a9.51,9.51,0,0,0,16.15-4.4l4-17.25a9.5,9.5,0,0,1,7.55-7.2l17.42-3.19A9.51,9.51,0,0,0,89.29,16.7Z"/></g></g></svg>