<svg xmlns="http://www.w3.org/2000/svg" viewBox="0 0 279.67 68.66"><defs><style>.cls-1{fill:#ff9206;}.cls-2{fill:#e25b15;}.cls-3{fill:none;stroke:#fff;stroke-miterlimit:10;stroke-width:1.46px;}</style></defs><g id="Layer_2" data-name="Layer 2"><g id="Layer_2-2" data-name="Layer 2"><circle class="cls-1" cx="271.37" cy="58.8" r="8.3"/><path d="M84.81,45.49V11.73H107v29c0,6.35,2.34,9.69,7.46,9.69s7.91-3.23,7.91-10.36V11.73h21.94V67.1H122.35V58.85c-2.67,6-8.58,9.81-17.15,9.81C90.71,68.66,84.81,59.41,84.81,45.49Z" transform="translate(0 0)"/><path d="M151.1,67.1V11.73h21.83V24.1c2-8.58,8.36-13.48,15.93-13.48A20.48,20.48,0,0,1,193,11v20.6a30.77,30.77,0,0,0-5.56-.44c-9.81,0-14.49,5.45-14.49,17.37V67.1Z" transform="translate(0 0)"/><path d="M194.43,38.91c0-17,9.92-29.29,25.18-29.29,8.58,0,14.59,4.12,17.26,9.8V11.18h21.84V66.54H236.87V58.3c-2.56,5.68-9,9.8-17.37,9.8C204,68.1,194.43,55.85,194.43,38.91Zm43.33,0c0-6.68-3.89-11.69-10.47-11.69-6.23,0-10.24,4.9-10.24,11.69s4,11.59,10.24,11.59C233.87,50.5,237.76,45.49,237.76,38.91Z" transform="translate(0 0)"/><path class="cls-1" d="M36.07,68.49H63A5.47,5.47,0,0,0,68.49,63V36.07A32.42,32.42,0,1,0,32,68.23,32.9,32.9,0,0,0,36.07,68.49Z" transform="translate(0 0)"/><path class="cls-1" d="M35.71,68.13H62.65a5.48,5.48,0,0,0,5.48-5.48V35.71A32.42,32.42,0,1,0,31.58,67.86,31.26,31.26,0,0,0,35.71,68.13Z" transform="translate(0 0)"/><path class="cls-1" d="M35.34,67.76H62.29a5.47,5.47,0,0,0,5.47-5.47V35.34A32.42,32.42,0,1,0,31.22,67.5,32.9,32.9,0,0,0,35.34,67.76Z" transform="translate(0 0)"/><path class="cls-1" d="M35,67.4H61.92a5.48,5.48,0,0,0,5.48-5.48V35A32.42,32.42,0,1,0,30.85,67.13,31.26,31.26,0,0,0,35,67.4Z" transform="translate(0 0)"/><path class="cls-1" d="M34.61,67h27A5.47,5.47,0,0,0,67,61.56V34.61A32.42,32.42,0,1,0,30.49,66.77,32.78,32.78,0,0,0,34.61,67Z" transform="translate(0 0)"/><path class="cls-1" d="M34.25,66.66H61.19a5.46,5.46,0,0,0,5.47-5.47V34.25A32.42,32.42,0,1,0,30.12,66.4,31.26,31.26,0,0,0,34.25,66.66Z" transform="translate(0 0)"/><path class="cls-1" d="M33.88,66.3H60.83a5.47,5.47,0,0,0,5.47-5.47V33.88A32.39,32.39,0,0,0,33.1,1.47,32.42,32.42,0,0,0,29.75,66,33.06,33.06,0,0,0,33.88,66.3Z" transform="translate(0 0)"/><path class="cls-1" d="M33.51,65.93h27a5.47,5.47,0,0,0,5.47-5.47V33.51A32.42,32.42,0,1,0,29.39,65.67,31.22,31.22,0,0,0,33.51,65.93Z" transform="translate(0 0)"/><path class="cls-1" d="M33.15,65.57h27a5.47,5.47,0,0,0,5.47-5.47V33.15A32.39,32.39,0,0,0,32.37.74,32.42,32.42,0,0,0,29,65.31,33.06,33.06,0,0,0,33.15,65.57Z" transform="translate(0 0)"/><path class="cls-1" d="M32.78,65.2H59.73a5.47,5.47,0,0,0,5.47-5.47V32.78A32.42,32.42,0,1,0,28.66,64.94,33,33,0,0,0,32.78,65.2Z" transform="translate(0 0)"/><path class="cls-1" d="M32.42,64.84H59.37a5.47,5.47,0,0,0,5.47-5.47V32.42A32.39,32.39,0,0,0,31.64,0a32.42,32.42,0,0,0-3.35,64.57A33.06,33.06,0,0,0,32.42,64.84Z" transform="translate(0 0)"/><path class="cls-2" d="M32.42,64.84H59.37a5.47,5.47,0,0,0,5.47-5.47V32.42A32.39,32.39,0,0,0,31.64,0a32.42,32.42,0,0,0-3.35,64.57A33.06,33.06,0,0,0,32.42,64.84Z" transform="translate(0 0)"/><rect class="cls-3" x="19.72" y="19.31" width="19.97" height="19.97" rx="6.4"/><rect class="cls-3" x="27.96" y="28.46" width="19.97" height="19.97" rx="6.4"/></g></g></svg>