<svg xmlns="http://www.w3.org/2000/svg" viewBox="0 0 569.5 124.35"><defs><style>.cls-1{fill:none;stroke:#febf10;stroke-miterlimit:10;stroke-width:9.57px;}.cls-2{fill:#0a1930;}</style></defs><g id="Layer_2" data-name="Layer 2"><g id="Layer_2-2" data-name="Layer 2"><path class="cls-1" d="M0,69.91l281-1.07a4.22,4.22,0,0,1,4,5.59l-12,34.95Q293.51,92,314,74.56a24.68,24.68,0,0,1,15.6-5.88l239.87-3.91"/><path class="cls-2" d="M24.21,47.26A23.75,23.75,0,0,1,15,45.48,22.68,22.68,0,0,1,2.62,33,24.47,24.47,0,0,1,.84,23.6a24.84,24.84,0,0,1,1.75-9.43A21.85,21.85,0,0,1,7.5,6.67a22.48,22.48,0,0,1,7.42-4.92A24.16,24.16,0,0,1,24.21,0a23.39,23.39,0,0,1,9,1.66,21,21,0,0,1,6.8,4.42,16.11,16.11,0,0,1,4,6.15l-8.51,4.06a11.5,11.5,0,0,0-4.14-5.5A11.69,11.69,0,0,0,24.21,8.6,13.55,13.55,0,0,0,17,10.51a12.92,12.92,0,0,0-4.81,5.25,17.06,17.06,0,0,0-1.71,7.84,17.17,17.17,0,0,0,1.71,7.86A12.84,12.84,0,0,0,17,36.75a13.55,13.55,0,0,0,7.21,1.9,11.69,11.69,0,0,0,7.18-2.18A11.55,11.55,0,0,0,35.53,31L44,35a16,16,0,0,1-4,6.14,20.86,20.86,0,0,1-6.8,4.43A23.39,23.39,0,0,1,24.21,47.26Z"/><path class="cls-2" d="M73.38,47.26a26.18,26.18,0,0,1-9.7-1.78,23.74,23.74,0,0,1-7.8-5A23.1,23.1,0,0,1,48.83,23.6a23.58,23.58,0,0,1,1.83-9.34,22.45,22.45,0,0,1,5.16-7.5,24,24,0,0,1,7.8-5,27.65,27.65,0,0,1,19.52,0,24,24,0,0,1,7.8,5,22.75,22.75,0,0,1,5.16,7.5,23.58,23.58,0,0,1,1.83,9.34,23.06,23.06,0,0,1-7.06,16.87,23.59,23.59,0,0,1-7.79,5A26.18,26.18,0,0,1,73.38,47.26Zm0-8.61a15.3,15.3,0,0,0,5.87-1.1A14.75,14.75,0,0,0,84,34.44a13.84,13.84,0,0,0,3.17-4.76A16.17,16.17,0,0,0,88.3,23.6a16,16,0,0,0-1.12-6.06,14.13,14.13,0,0,0-7.93-7.86,16.52,16.52,0,0,0-11.75,0,14.16,14.16,0,0,0-7.92,7.86,15.83,15.83,0,0,0-1.12,6.06,16,16,0,0,0,1.12,6.08,13.7,13.7,0,0,0,3.17,4.76,14.71,14.71,0,0,0,4.75,3.11A15.38,15.38,0,0,0,73.38,38.65Z"/><path class="cls-2" d="M104.77,46.52V.74h7.39L137,33.12l-4,.92V.74h9.63V46.52h-7.46L110.79,13.89,114.4,13V46.52Z"/><path class="cls-2" d="M167.73,47.26a21.28,21.28,0,0,1-8.18-1.57A19,19,0,0,1,153,41.24a18.44,18.44,0,0,1-4.14-6.83l7.9-3.5a14.39,14.39,0,0,0,4.81,5.9A11.57,11.57,0,0,0,168.35,39a8.64,8.64,0,0,0,3.42-.61A5.48,5.48,0,0,0,174,36.66a4.19,4.19,0,0,0,.8-2.55,4,4,0,0,0-1-2.74,6.74,6.74,0,0,0-3.11-1.81l-9.07-2.95a17.78,17.78,0,0,1-8.33-5.07,11.77,11.77,0,0,1-2.8-7.9,12.67,12.67,0,0,1,2-7.13,13.56,13.56,0,0,1,5.66-4.79A19.27,19.27,0,0,1,166.55,0a20.63,20.63,0,0,1,7.7,1.41,18,18,0,0,1,6.13,4,16.61,16.61,0,0,1,3.88,6.2l-7.83,3.51a11,11,0,0,0-3.92-5,10.19,10.19,0,0,0-6-1.81,8.88,8.88,0,0,0-3.42.61,5.09,5.09,0,0,0-2.3,1.75,4.39,4.39,0,0,0-.81,2.61,4.08,4.08,0,0,0,1.06,2.8,6.89,6.89,0,0,0,3.17,1.87l8.89,2.83a18,18,0,0,1,8.35,5,11.48,11.48,0,0,1,2.77,7.8,12.29,12.29,0,0,1-2.11,7.1,14.27,14.27,0,0,1-5.81,4.86A20.05,20.05,0,0,1,167.73,47.26Z"/><path class="cls-2" d="M209.49,47.26A20.45,20.45,0,0,1,199.74,45,17.27,17.27,0,0,1,193,38.75a16.84,16.84,0,0,1-2.45-9V.74h9.63V29.13A10,10,0,0,0,201.38,34a8.83,8.83,0,0,0,3.33,3.42,10.05,10.05,0,0,0,9.6,0,8.9,8.9,0,0,0,3.3-3.42,10,10,0,0,0,1.21-4.88V.74h9.63v29a16.84,16.84,0,0,1-2.45,9A17.27,17.27,0,0,1,219.25,45,20.47,20.47,0,0,1,209.49,47.26Z"/><path class="cls-2" d="M236.1,46.52V.74h9.63V38.22h19.58v8.3Z"/><path class="cls-2" d="M274.69,46.52V9H263V.74h32.94V9H284.33V46.52Z"/><path class="cls-2" d="M328,47.26a21.87,21.87,0,0,1-8.48-1.6,17.11,17.11,0,0,1-6.4-4.52,16.12,16.12,0,0,1-3.58-6.79l7.27-2.7a11.29,11.29,0,0,0,4.2,6.11A11.58,11.58,0,0,0,328,40a10.07,10.07,0,0,0,4.23-.83A6.56,6.56,0,0,0,335,36.87a5.37,5.37,0,0,0,1-3.13,4.4,4.4,0,0,0-1.09-3,7.53,7.53,0,0,0-3.45-2l-8.21-2.7a15.16,15.16,0,0,1-7.33-4.61,11.29,11.29,0,0,1-2.42-7.32,12.63,12.63,0,0,1,2.14-7.19,15.18,15.18,0,0,1,5.81-5.07A18,18,0,0,1,329.7,0a19.94,19.94,0,0,1,7.83,1.47,16.3,16.3,0,0,1,5.81,4.06,13.88,13.88,0,0,1,3.2,6.08l-7.21,2.71a9.1,9.1,0,0,0-3.54-5.16,10.59,10.59,0,0,0-6.28-1.85,9.76,9.76,0,0,0-4,.77,6.46,6.46,0,0,0-2.71,2.12,5.38,5.38,0,0,0-1,3.2A4.63,4.63,0,0,0,323,16.56a7.94,7.94,0,0,0,3.57,2.12l7.77,2.64A16.31,16.31,0,0,1,342,25.93a10.92,10.92,0,0,1,2.48,7.25,12.27,12.27,0,0,1-2.17,7.07,15.56,15.56,0,0,1-5.88,5.1A18.1,18.1,0,0,1,328,47.26Z"/><path class="cls-2" d="M350.21,46.52,356.68.74H387.5l-1.05,7.37H364.07l-1.61,11.74h21.07l-1,7.37H361.4l-1.68,11.93H382l-1,7.37Z"/><path class="cls-2" d="M383.4,46.52,405.84.74h10.94l9.51,45.78h-8.83l-1.92-9.83H397.7L393,46.52Zm17.78-17.21h12.93L409.69,6.64l2.3.24Z"/><path class="cls-2" d="M431.45,46.52,437.91.74H446L460,24.7l-5.1-.3L476.2.74h8.33l-6.47,45.78h-8.45l5-36,2.55.86L456.93,34.23h-1L441.64,9.46l3.36,1-5.1,36Z"/><path class="cls-2" d="M483.16,46.52,505.6.74h10.94L526,46.52h-8.82l-1.93-9.83H497.45l-4.72,9.83Zm17.77-17.21h12.93L509.45,6.64l2.3.24Z"/><path class="cls-2" d="M549.29,47.26a21.87,21.87,0,0,1-8.48-1.6,17.11,17.11,0,0,1-6.4-4.52,16.12,16.12,0,0,1-3.58-6.79l7.27-2.7a11.29,11.29,0,0,0,4.2,6.11,11.58,11.58,0,0,0,7,2.19,10.07,10.07,0,0,0,4.23-.83,6.56,6.56,0,0,0,2.76-2.25,5.37,5.37,0,0,0,1-3.13,4.4,4.4,0,0,0-1.09-3,7.53,7.53,0,0,0-3.45-2l-8.21-2.7a15.16,15.16,0,0,1-7.33-4.61,11.29,11.29,0,0,1-2.42-7.32,12.63,12.63,0,0,1,2.14-7.19,15.18,15.18,0,0,1,5.81-5.07A18,18,0,0,1,551,0a19.94,19.94,0,0,1,7.83,1.47,16.3,16.3,0,0,1,5.81,4.06,13.88,13.88,0,0,1,3.2,6.08l-7.21,2.71a9.1,9.1,0,0,0-3.54-5.16,10.59,10.59,0,0,0-6.28-1.85,9.76,9.76,0,0,0-4,.77,6.46,6.46,0,0,0-2.71,2.12,5.38,5.38,0,0,0-1,3.2,4.63,4.63,0,0,0,1.15,3.16,7.94,7.94,0,0,0,3.57,2.12l7.77,2.64a16.31,16.31,0,0,1,7.59,4.61,10.92,10.92,0,0,1,2.48,7.25,12.27,12.27,0,0,1-2.17,7.07,15.56,15.56,0,0,1-5.88,5.1A18.1,18.1,0,0,1,549.29,47.26Z"/></g></g></svg>